# xmcd
#
# Track frame offsets:
#       150
#       12878
#       22407
#       36313
#       48193
#
# Disc length: 779 seconds
#
#
# Revision: 0
# Processed by: cddbd v1.4PL0 Copyright (c) Steve Scherf et al.
# Submitted via: Visual Ripper tool of Visual MP3 v4.18
#
DISCID=3a030905
DTITLE=uncle bud - hot fudge mondays
DYEAR=2003
DGENRE=Blues
TTITLE0=live fast, die young
TTITLE1=on the ground
TTITLE2=don't give it up
TTITLE3=waste away
TTITLE4=living right above
EXTD=
EXTT0=
EXTT1=
EXTT2=
EXTT3=
EXTT4=
PLAYORDER=
